<svg id="Livello_1" data-name="Livello 1" xmlns="http://www.w3.org/2000/svg" viewBox="0 0 338.5 414.46"><defs><style>.cls-1{fill:#d8d8d8;}.cls-2{fill:#d6d6d6;}.cls-3{fill:#ffc384;}.cls-4{fill:#213984;}.cls-5{fill:#bcbcbc;}.cls-6{fill:#3c3d3f;}.cls-7{fill:#934016;}.cls-8{fill:#703518;}.cls-9{fill:#ea3232;}.cls-10{fill:#f95858;}.cls-11{fill:#383838;}.cls-12{fill:#ffa300;}.cls-13{fill:#ffbc00;}.cls-14{fill:#333;}.cls-15{fill:#565656;}.cls-16{fill:#fab490;}.cls-17{fill:#9e204d;}.cls-18{fill:#302f71;}.cls-19{fill:#494949;}.cls-20{fill:#f75e5e;}.cls-21{fill:#666;}.cls-22{fill:#349e89;}.cls-23{fill:#1e1e1e;}.cls-24{fill:#562a2d;}.cls-25{fill:#693132;}.cls-26{fill:#f4b276;}.cls-27{fill:#fff;}.cls-28{fill:#aa5b13;}.cls-29{fill:#34b29a;}.cls-30{fill:#262626;}.cls-31{fill:#3d3d3d;}.cls-32{fill:#d5ed45;}.cls-33{fill:#c13a64;}.cls-34{fill:#b3dd19;}.cls-35{fill:#f4b073;}.cls-36{fill:#c57037;}.cls-37{fill:#b5b5b5;}.cls-38{fill:#c9c9c9;}.cls-39{fill:#f87024;}.cls-40{fill:#f4b67d;}.cls-41{fill:#99ba0f;}.cls-42{fill:#859b05;}.cls-43{fill:#c95f18;}.cls-44{fill:#c6c6c6;}.cls-45{fill:#7f7f7f;}</style></defs><title>signal</title><path class="cls-1" d="M249.16,100.44a20.41,20.41,0,0,0,1-6.47c0-8.65-5.12-15.69-11.4-15.69a7.63,7.63,0,0,0-1.62.17c-3.56-10.21-11.11-16.77-19.33-16.77a16.19,16.19,0,0,0-7.58,1.92c-5.8-13.16-16.27-21.3-27.45-21.3-10,0-19.23,6.23-25.37,17.13a19.66,19.66,0,0,0-10.56-3.14c-10.48,0-19.73,8.58-23.67,21.92-.24,0-.48,0-.72,0C114,78.17,107,87.72,107,99.47c0,.33,0,.64,0,1Z" transform="translate(-80.94 -42.3)"/><ellipse class="cls-2" cx="169.25" cy="401.92" rx="169.25" ry="12.54"/><path class="cls-3" d="M361.29,406.22s8-2.85,10-3.25,6.31,4.45,6.31,5-4.31,1.66-4.31,1.66-2.26-1.59-3.39-1.46-1.13,2.19-3.25,1.46-4.71.8-4.71.8Z" transform="translate(-80.94 -42.3)"/><path class="cls-4" d="M383.82,435.06s-8-7.09-9.46-7.58-13.88,6.12-13.88,6.12l9.63,6Z" transform="translate(-80.94 -42.3)"/><path class="cls-5" d="M373.73,441.47c-3.17-1.41-6.72-5.15-5.15-8.19a5,5,0,0,1,2.37-1.72c1.35-.43,4.25.64,8.66,2.16,5.92,2,11.38,1.9,14.84,3.26,2.31.9,2.64,4,1.55,6a8.19,8.19,0,0,1-2.26,1.93C391.18,446.46,379.46,444,373.73,441.47Z" transform="translate(-80.94 -42.3)"/><path class="cls-6" d="M373.65,441.92c-3.12-1.24-6.62-4.54-5.08-7.23a5,5,0,0,1,2.34-1.52c1.33-.38,4.19.57,8.53,1.91,5.84,1.8,11.22,1.68,14.64,2.88,2.27.8,2.6,3.56,1.52,5.3a8.09,8.09,0,0,1-2.22,1.71C390.85,446.33,379.3,444.18,373.65,441.92Z" transform="translate(-80.94 -42.3)"/><path class="cls-4" d="M336.08,422.92s46.72-17.28,55.47-17.28,8.36,10.74,3.42,14.09c-4.39,3-28.74,14.16-40.49,19.92s-36.93,12.45-36-10.73C328.13,416.1,336.08,422.92,336.08,422.92Z" transform="translate(-80.94 -42.3)"/><path class="cls-3" d="M348.17,353s-4,10.12-5.41,13c-.32,4.48,7.43,9.29,7.43,9.29s.61-5.87,3.85-5.87S355.21,345.77,348.17,353Z" transform="translate(-80.94 -42.3)"/><path class="cls-3" d="M374.21,353s-1.15,5.76-2.78,7.76-.56,4.24-.56,5.82-1.82,1-3.33,0c-2.49,2.42-5.51,7.21-10.72,5.52s-9.34-11.82-5.64-16.56c1.76-4.42,8.85-11.15,8.85-11.15Z" transform="translate(-80.94 -42.3)"/><path class="cls-7" d="M367.92,360.42c-.39.81-1.11,1.28-1.59,1.05s-.55-1.09-.15-1.9,1.11-1.29,1.59-1.06S368.32,359.6,367.92,360.42Z" transform="translate(-80.94 -42.3)"/><path class="cls-8" d="M365.61,357.41s.65-2.51,2.89-1.94c1.78.56,1.75,2,1.1,1.94s-.81-1-1.79-1A2.28,2.28,0,0,0,365.61,357.41Z" transform="translate(-80.94 -42.3)"/><path class="cls-8" d="M365,345.75s-2.91,4.85-5.33,5-4,3.87-4,3.87l-1.81-1.09s-2.82-1.55-3.59.62-4.18,3.12-4.18,3.12-1.2-16.83,4.65-18.43c4.41-1.21,3.89,2,4.91,2C360.27,340.94,365,345.75,365,345.75Z" transform="translate(-80.94 -42.3)"/><path class="cls-9" d="M350.47,373.79s3.57,3.91,3.93,8.58c.64,8.37-1.57,26.76-1.57,31.31s.65,3,.65,3-27,11.63-35,12.22c-8.68-5.56-3.75-25.66-1-35.2s7.85-18.07,10.27-19.93c4.46-4.89,10.81-7,15.66-9.88A11.58,11.58,0,0,0,350.47,373.79Z" transform="translate(-80.94 -42.3)"/><path class="cls-3" d="M355.14,351.7s-.08-3.89-3.07-3.64-2.11,10,0,9.13S355.14,351.7,355.14,351.7Z" transform="translate(-80.94 -42.3)"/><path class="cls-10" d="M337.54,407s3.18-18.12,2.08-21.81-6.81-7.86-10.34-2.38-2.71,29.33-1.18,34.17,7.11,4.53,16.83,2,16.86-5.51,18.72-8.13a16.72,16.72,0,0,0-1.56-6s-18.55,2.58-23.88,5.31A6,6,0,0,1,337.54,407Z" transform="translate(-80.94 -42.3)"/><path class="cls-11" d="M407.36,373.07a.86.86,0,0,0-1.15.38L388.6,402.68a.86.86,0,0,0,.19,1.2l.35.21a.87.87,0,0,0,1.15-.39l17.61-29.23a.87.87,0,0,0-.2-1.2Z" transform="translate(-80.94 -42.3)"/><path class="cls-11" d="M390.84,404.3a.9.9,0,0,0-1.17-.46l-34.45,10.6a.9.9,0,0,0-.71,1l.12.39a.89.89,0,0,0,1.16.46l34.46-10.6a.9.9,0,0,0,.71-1Z" transform="translate(-80.94 -42.3)"/><path class="cls-8" d="M352,339.83s-.1-6.29,11.15-5.83,18.72,14.58,13.17,23.25c-5.08-.85-16.08-8.22-16.08-8.22Z" transform="translate(-80.94 -42.3)"/><path class="cls-12" d="M346,360.13s-2.61-2.41-4.28,0-8.49.65-6,8.64,15.77,19.63,20.94,15.9.69-12.19.69-12.19-3.6-.87-5.07-3.35C350.6,370.9,346.39,363.4,346,360.13Z" transform="translate(-80.94 -42.3)"/><path class="cls-13" d="M352.67,401.48s3.69-25.8-2.31-32.78c1.7-1.5,9.21,1.34,10.43,17.27,1,12.47,1.94,15.51,1.94,15.51Z" transform="translate(-80.94 -42.3)"/><path class="cls-14" d="M235.15,198.91s-6.7,2.34-7.72,4.09,6.26,16.41,7.16,19.37,6.19,4,5.15,0S235.39,205,238.28,203,235.15,198.91,235.15,198.91Z" transform="translate(-80.94 -42.3)"/><path class="cls-15" d="M236,221.14c-.89-3-8.16-17.58-7.16-19.37a4.51,4.51,0,0,0-1.42,1.23c-1,1.76,6.26,16.41,7.16,19.37.78,2.57,4.85,3.66,5.24,1.33A3.89,3.89,0,0,1,236,221.14Z" transform="translate(-80.94 -42.3)"/><path class="cls-16" d="M234.26,199.24a25.72,25.72,0,0,0,3.31,4.89c6.77-4.23,12.45-6.89,16.74-10l-5.52-7.54C242.05,192,234.26,199.24,234.26,199.24Z" transform="translate(-80.94 -42.3)"/><path class="cls-17" d="M268.31,174c-2.65-3.82-27.71-17.29-27.71-17.29l-16,3.7s-1,7.43,4.68,11.55c6.92,5,15.68,1.61,27.71,8.3-2.65,1.17-9.88,7.07-15.54,11.88l4.78,7.6C275.51,181.51,270.75,177.47,268.31,174Z" transform="translate(-80.94 -42.3)"/><path class="cls-18" d="M277.32,389.68a27.13,27.13,0,1,1-27.13-27.12A27.13,27.13,0,0,1,277.32,389.68Z" transform="translate(-80.94 -42.3)"/><path class="cls-18" d="M250.19,172.37A220.91,220.91,0,0,0,86,245.38l19,21a192.93,192.93,0,0,1,290.26,0l19-21A220.91,220.91,0,0,0,250.19,172.37Z" transform="translate(-80.94 -42.3)"/><path class="cls-18" d="M250.19,235.14a158.43,158.43,0,0,0-121.74,57l19.15,21.1a130.38,130.38,0,0,1,205.18,0l19.14-21.1A158.42,158.42,0,0,0,250.19,235.14Z" transform="translate(-80.94 -42.3)"/><path class="cls-18" d="M250.19,297.9a95.89,95.89,0,0,0-78.9,41.45L191,361a67.7,67.7,0,0,1,118.48,0l19.66-21.66A95.89,95.89,0,0,0,250.19,297.9Z" transform="translate(-80.94 -42.3)"/><polygon class="cls-19" points="83.44 401.92 79.3 344.4 82.15 322.05 79.61 321.72 76.74 344.2 76.72 344.33 80.87 401.92 83.44 401.92"/><polygon class="cls-19" points="117.55 401.92 113.41 344.4 116.26 322.05 113.71 321.72 110.84 344.2 110.83 344.33 114.98 401.92 117.55 401.92"/><path class="cls-20" d="M202.72,365.79a2.51,2.51,0,0,1-2.44,2.21H160a2,2,0,0,1-2-2.21l1.64-16a2.5,2.5,0,0,1,2.44-2.21h40.24a2,2,0,0,1,2,2.21Z" transform="translate(-80.94 -42.3)"/><path class="cls-9" d="M200.85,366.1a2.51,2.51,0,0,1-2.44,2.21H158.16a2,2,0,0,1-2-2.21l1.64-16a2.51,2.51,0,0,1,2.44-2.21H200.5a2,2,0,0,1,2,2.21Z" transform="translate(-80.94 -42.3)"/><polygon class="cls-21" points="47.38 404.17 53.94 355.22 51.4 354.87 44.79 404.17 47.38 404.17"/><polygon class="cls-21" points="76.52 404.17 83.01 355.22 80.46 354.87 73.93 404.17 76.52 404.17"/><rect class="cls-21" x="48.95" y="381.26" width="29.13" height="2.57"/><path class="cls-20" d="M193.92,396.41a2.39,2.39,0,0,1-2.39,2.39H125.16a2.39,2.39,0,0,1-2.4-2.39h0a2.39,2.39,0,0,1,2.4-2.4h66.37a2.39,2.39,0,0,1,2.39,2.4Z" transform="translate(-80.94 -42.3)"/><path class="cls-9" d="M125.16,394a2.4,2.4,0,1,0,0,4.79h31V394Z" transform="translate(-80.94 -42.3)"/><path class="cls-22" d="M140.25,412.08s5.46,4.57,5.86,6.31-9.58,12.13-11.11,14.39-6.25,1.7-4.33-1.35,8.22-13.44,6.32-15.9S140.25,412.08,140.25,412.08Z" transform="translate(-80.94 -42.3)"/><path class="cls-23" d="M145.86,417.81S135.2,432.91,131,433.88a2.37,2.37,0,0,0,3,1.09c2.5-.82,12.34-12.37,14-14.74C148.19,419.13,146.54,417.73,145.86,417.81Z" transform="translate(-80.94 -42.3)"/><path class="cls-22" d="M150.63,414.2s5.45,4.57,5.85,6.32-9.58,12.13-11.11,14.38-6.24,1.7-4.33-1.34,8.23-13.44,6.33-15.9S150.63,414.2,150.63,414.2Z" transform="translate(-80.94 -42.3)"/><path class="cls-23" d="M156.23,419.94S145.57,435,141.32,436a2.34,2.34,0,0,0,3,1.11c3-1,12.15-12.83,13.83-15.19C158.34,420.82,156.91,419.85,156.23,419.94Z" transform="translate(-80.94 -42.3)"/><path class="cls-24" d="M156.15,379s-30.73,2-34.09,4.3-9,4.37,14.78,35.13a35.52,35.52,0,0,0,6-4.87S133.54,396,130.37,393c12-1.84,22.46.42,24.49.57s12.91-12.76,12.91-12.76Z" transform="translate(-80.94 -42.3)"/><path class="cls-25" d="M165.22,379.87s-29.3,2.5-32.66,4.85-8.92,5,14.83,35.8a35.52,35.52,0,0,0,6-4.87s-9.31-18.6-12.48-21.68c12.81,0,29.1.27,31.12,0,11.94-1.36,5.88-14.54,5.88-14.54Z" transform="translate(-80.94 -42.3)"/><path class="cls-26" d="M168.74,325.44s-1.11,2.42,2.16,6.2a23,23,0,0,1-10.22,4.41s-.18-7.66-1.18-8.95Z" transform="translate(-80.94 -42.3)"/><path class="cls-3" d="M174.58,313.68s-.33,15.1-13,15c-8.21-.11-11.21-9.44-11.21-9.44a4.43,4.43,0,0,1-3.55-4.33c-.33-3.88,1.22-5.1,2.22-3.77a13.93,13.93,0,0,1,.89-6.11s17.87-4.77,20.2-5S174.58,313.68,174.58,313.68Z" transform="translate(-80.94 -42.3)"/><path class="cls-27" d="M166.2,321h-8.1S162.15,328.48,166.2,321Z" transform="translate(-80.94 -42.3)"/><path class="cls-7" d="M166.87,314.32c0,.94.44,1.69,1,1.69s1-.75,1-1.69-.44-1.69-1-1.69S166.87,313.39,166.87,314.32Z" transform="translate(-80.94 -42.3)"/><path class="cls-7" d="M154.75,314.32c0,.94.44,1.69,1,1.69s1-.75,1-1.69-.45-1.69-1-1.69S154.75,313.39,154.75,314.32Z" transform="translate(-80.94 -42.3)"/><path class="cls-28" d="M171,310.05s-.66-2.58-3-2c-1.83.58-1.8,2.11-1.13,2s.83-1,1.84-1A2.32,2.32,0,0,1,171,310.05Z" transform="translate(-80.94 -42.3)"/><path class="cls-28" d="M153.15,310.05s.66-2.58,3-2c1.84.58,1.81,2.11,1.14,2s-.83-1-1.84-1A2.3,2.3,0,0,0,153.15,310.05Z" transform="translate(-80.94 -42.3)"/><path class="cls-3" d="M149.42,311.6s-.62-1.54-1.95-1.17-1.13,4.84,0,6.69,2.33,2.68,3.16,1.93S149.42,311.6,149.42,311.6Z" transform="translate(-80.94 -42.3)"/><path class="cls-3" d="M174.19,311.6s.63-1.54,2-1.17,1.12,4.84,0,6.69-2.33,2.68-3.17,1.93S174.19,311.6,174.19,311.6Z" transform="translate(-80.94 -42.3)"/><path class="cls-28" d="M170.11,302.48a38.78,38.78,0,0,0,2.67,6,18.84,18.84,0,0,1,.54,6.33c-.17.78,1.17,0,1.17,0s-.4-3.53.61-4.31c1.67-3.94,3.6-18.13-2.32-17.63-.59-4.33-13.83-6.83-18-4.66s-6.52,1.83-8.27.66c.41,2.83,1.41,4,3,4.11-.83.89-3.6,1.06-4.38.39.44,1.55,1,2.33,2.39,2.39-.45.49-1.84.22-2.06.11.28,1,.58,1.33,1.34,1.5-1.56.5-1.67,2.89-1.67,3.92s2.36,9.1,2.36,9.1,1.35,0,1.56.92,0,2.16.23,2.44.79.06.79.06a15.32,15.32,0,0,0,.39-4.51c-.28-1.61.94-2.11,1.55-3.72s5.44,1.17,7.77-.72a3.18,3.18,0,0,1-3,1.61c1.62.83,5.4.16,7.29-3.17a4.73,4.73,0,0,1-1.56,3.22S168.42,306,170.11,302.48Z" transform="translate(-80.94 -42.3)"/><path class="cls-3" d="M137.62,354a8.21,8.21,0,0,1-.43-2.53c-.07-1.61-2.43-3.4-3.51-4.08s-5-1.95-5.1-1.63-2.49,2.33-1,5c.93,1.66,5.48,3.65,6.44,4.93S137.62,354,137.62,354Z" transform="translate(-80.94 -42.3)"/><path class="cls-3" d="M137.5,353.62c3.16,3.42,14.35,9.81,15.26,9.51s8.76-10.69,15.67-13.56c0,0,7.27-2.87,7.16,2.43s-17.13,18.82-21.2,21S137,359.05,134,355.72Z" transform="translate(-80.94 -42.3)"/><path class="cls-22" d="M152.41,379c.26-2.19,2.08-5.23,2.27-6.62.57-4.09,1.1-16.56,2.28-24.08.52-3.32,1.94-11.06,3.11-12.66,5.38-.5,7.46-2.67,9.45-5.9,2.54,1.48,6,7.29,8.59,12.5,1.55,5.45,2.38,8.43,2.06,13.33-.37,5.42-.15,18.36-.29,26.25C171.34,384,160.82,381.25,152.41,379Z" transform="translate(-80.94 -42.3)"/><path class="cls-3" d="M169.16,343.42s-.86-4.86,4.34-3.82,10.84,19.24,12.28,23.63-13.39,17.44-17.6,24.57c-.68-.31-3.24-3.67-3.17-4.25.27-2.18,14.56-19.9,14.42-20.94S170.78,350.72,169.16,343.42Z" transform="translate(-80.94 -42.3)"/><path class="cls-29" d="M168.16,343.85s-1.55-7.66,3.65-6.63c2.81.56,7.11,6.38,10.7,12.32l-8.76,5.62C171.41,351.83,168.94,347.35,168.16,343.85Z" transform="translate(-80.94 -42.3)"/><polygon class="cls-30" points="42.62 299.25 43.12 298.7 55.23 309.01 54.73 309.56 52.13 311.33 42.62 299.25"/><polygon class="cls-31" points="43.12 298.7 46.28 297.44 55.23 309.01 52.63 310.78 43.12 298.7"/><path class="cls-16" d="M134.15,347.7s-1.73-1.44-2.57-1.43-.22,1.09.74,1.53a9.52,9.52,0,0,1,2.43,1.68C135,349.81,134.15,347.7,134.15,347.7Z" transform="translate(-80.94 -42.3)"/><path class="cls-3" d="M127.77,346.9s1.21-.89,1.86-.46,0,.7,0,.7,1,.11.88.7a.48.48,0,0,1-.34.3s.75.22.9.56,0,.51-.27.52c.55.25.68.85.19,1a2.83,2.83,0,0,1-2.09-.8C128.15,348.8,127.22,347.51,127.77,346.9Z" transform="translate(-80.94 -42.3)"/><path class="cls-32" d="M246.86,128.59c.36-3.23,2-9,3.56-9.53,2.32-.75,6,1.8,5.4,9.05-.38,5,2,19.32,2,19.32s21.78,5.73,23.08,6.49a25.33,25.33,0,0,1-.62,4.43s-22.9-1.18-28.49-2.61S246.13,135.29,246.86,128.59Z" transform="translate(-80.94 -42.3)"/><path class="cls-7" d="M229,113.34s2,2.79,20.7,1.5c3.52-5,4.71-20.68,4.71-20.68L223,91.08Z" transform="translate(-80.94 -42.3)"/><path class="cls-14" d="M244.41,199s-6.54,4.68-7.09,6.91,12.05,15.84,14,18.78,8,2.34,5.6-1.63-10.28-17.49-7.77-20.61S244.41,199,244.41,199Z" transform="translate(-80.94 -42.3)"/><path class="cls-15" d="M252.29,223.12c-1.92-2.94-14.52-16.54-14-18.77a.47.47,0,0,1,.07-.12,4.93,4.93,0,0,0-1.07,1.67c-.55,2.24,12.05,15.84,14,18.78,1.61,2.48,6.17,2.43,6.13,0A4.43,4.43,0,0,1,252.29,223.12Z" transform="translate(-80.94 -42.3)"/><path class="cls-16" d="M243.54,199.63a29,29,0,0,0,5.17,4.27c6-6.76,11.33-11.47,15-16.19l-8.41-6.45C249.71,189.29,243.54,199.63,243.54,199.63Z" transform="translate(-80.94 -42.3)"/><path class="cls-33" d="M272.49,161.29c-4.09-3.31-35.63-10-35.63-10l-16.18,9.11s-.88,10,6.65,12.64c9.11,3.2,21-1.64,36-.71-2.51,2.12-9.61,10.16-14.24,17.19l7.63,6.74C282.73,167.2,276.26,164.33,272.49,161.29Z" transform="translate(-80.94 -42.3)"/><path class="cls-34" d="M250.13,114.08c2.84,1.13,5.71,3.62,5.47,10.91s-2.63,23.14-2.7,27.1a7.59,7.59,0,0,0,.56,3.06,103.72,103.72,0,0,0-32.78,10.39c-7.3-5.2-4-20.63-1.28-28.79s1-19.9,3.13-21.4C228.47,108.33,243.71,111.54,250.13,114.08Z" transform="translate(-80.94 -42.3)"/><path class="cls-35" d="M235.11,105.63s.07,4.9-1,7.7c.55,3.74,8.47,3.91,10.87-.2a9.23,9.23,0,0,1-.62-7C242.56,105.59,235.11,105.63,235.11,105.63Z" transform="translate(-80.94 -42.3)"/><path class="cls-3" d="M227.68,93.32s.32,14.61,12.57,14.51c8-.11,10.86-9.14,10.86-9.14a4.29,4.29,0,0,0,3.43-4.19c.33-3.76-1.18-4.94-2.14-3.65a13.37,13.37,0,0,0-.87-5.91S234.24,80.32,232,80.1,227.68,93.32,227.68,93.32Z" transform="translate(-80.94 -42.3)"/><path class="cls-27" d="M235.79,100.44h7.85S239.71,107.64,235.79,100.44Z" transform="translate(-80.94 -42.3)"/><path class="cls-36" d="M231.34,82.47s-.22,10.2-1.72,15,2.92,18,5.93,18.66c-5.8.65-16.37-1.13-13.45-20.49,2-13.48,5.69-20,8.59-18.91,2.9-4.08,17.41-5.37,22.24,1.29s9.64,38.22-8.7,38.22c2-1.4,7.36-15.12,6.88-17.59A5.09,5.09,0,0,0,254.33,94c0-2.3-1-4-1.88-2.71a9.83,9.83,0,0,0-1.21,3.52L251,87.92s-8.14-.81-12.89-3.55a14.24,14.24,0,0,0,4.75,2.74S234.88,87,231.34,82.47Z" transform="translate(-80.94 -42.3)"/><path class="cls-7" d="M235.15,93.94c0,.9-.43,1.64-1,1.64s-1-.74-1-1.64.43-1.64,1-1.64S235.15,93,235.15,93.94Z" transform="translate(-80.94 -42.3)"/><path class="cls-7" d="M246.88,93.94c0,.9-.43,1.64-1,1.64s-1-.74-1-1.64.43-1.64,1-1.64S246.88,93,246.88,93.94Z" transform="translate(-80.94 -42.3)"/><path class="cls-36" d="M231.17,89.8s.65-2.5,2.88-1.93c1.77.56,1.74,2,1.1,1.93s-.81-1-1.79-1A2.27,2.27,0,0,0,231.17,89.8Z" transform="translate(-80.94 -42.3)"/><path class="cls-36" d="M248.43,89.8s-.64-2.5-2.87-1.93c-1.78.56-1.75,2-1.1,1.93s.8-1,1.78-1A2.26,2.26,0,0,1,248.43,89.8Z" transform="translate(-80.94 -42.3)"/><polygon class="cls-37" points="179.19 115.28 197.17 85.21 198.17 85.21 197.26 121.79 179.19 115.28"/><polygon class="cls-38" points="180.19 115.28 198.17 85.21 215.79 97.68 198.25 122.37 180.19 115.28"/><polygon class="cls-31" points="180.47 114.81 161.93 109.73 161.42 111.29 179.83 116.79 198.25 122.37 198.78 121.62 180.47 114.81"/><path class="cls-3" d="M258.75,151.53c-1.56-.22-6.31-1.09-6.31-1.09l-.34,4.09,8.43,2.35.69-1.13C260.71,154.12,259.79,151.68,258.75,151.53Z" transform="translate(-80.94 -42.3)"/><path class="cls-32" d="M219,124.88c.36-3.22,2-9,3.55-9.53,2.32-.74,6,1.81,5.41,9.06-.39,5,2,19.31,2,19.31s21.77,5.73,23.07,6.49a24.27,24.27,0,0,1-.62,4.43s-22.9-1.18-28.49-2.61S218.25,131.58,219,124.88Z" transform="translate(-80.94 -42.3)"/><path class="cls-3" d="M298.9,328.11,282,334.59l-4.28-15.87-4.78-.9s3.06,17.65,2.49,19.4c-3.37,10.32,17.28-1.17,25.84-5.45Z" transform="translate(-80.94 -42.3)"/><path class="cls-3" d="M291.27,431.15s3.18,5.47,4.71,6.18c-1.46,2-8.53,1.59-8.53,1.59l-.32-6Z" transform="translate(-80.94 -42.3)"/><polygon class="cls-3" points="173.51 388.85 173.51 393.82 178.57 393.82 178.57 388.4 173.51 388.85"/><path class="cls-3" d="M276.59,354.44s4.8,35.93,6.91,42.62,8.86,35.86,8.86,35.86l-5.2.58s-2.9-12.74-6.72-17.71-5.93-13.76-6.12-18.16c-1.33-5.16-9.67-24.94-9.67-25.51s-.75-.25-.75-.25-2.57,19.84-3,24.14,0,13,0,18.25-1.43,17.54-1.43,17.54l-5.06,1.08s-3.16-18.33-2.87-23,.76-11,.95-13.86-8.72-43.86-1.45-43.48C256.68,349,276.59,354.44,276.59,354.44Z" transform="translate(-80.94 -42.3)"/><path class="cls-39" d="M277,354.07l3.63,19a69.88,69.88,0,0,1-32.36,4.14c-1.12-8.67-1.29-20.41,1-22.21C256.06,354,277,354.07,277,354.07Z" transform="translate(-80.94 -42.3)"/><path class="cls-7" d="M263.31,289.68,247,288.07l7,20.24s3.81-2.5,9.26-6.62Z" transform="translate(-80.94 -42.3)"/><path class="cls-40" d="M257.69,298.53v6.6l-3.05.86s.86,13.28,9.36,13.38,12-1.15,11.28-3.83a69.23,69.23,0,0,0-2.77-7.07l-6-2.58-.29-6.59Z" transform="translate(-80.94 -42.3)"/><path class="cls-41" d="M256.35,305.51s-9.45,1.53-11,2.87S240,321.27,240,321.27l5.83,2.81,2.26-2.48s5.57,5.6,6.53,8.95a17.76,17.76,0,0,1-2.43,14.4,32,32,0,0,0-4.38,11.85l29.55-.64s-.75-20.9-2-25.61c3-3.06,6.14-8.41,2.83-14.66.13-2.16-.73-5.27-1.64-6.13s-7-2.53-7-2.53,3.09,10.37-.83,10.27S256.35,305.51,256.35,305.51Z" transform="translate(-80.94 -42.3)"/><path class="cls-3" d="M240.72,321.6s-5.87,12.58-6.15,14.4,14.44,11.48,15.87,12.9a2.77,2.77,0,0,0,4.29-.89c1.55-4,3.9-1.22,4.56-4.08s-5.6-1.3-6.61.37c.16-.3,1-2,1-2l-2.76,1.93-10.32-9.84,4.66-10.58Z" transform="translate(-80.94 -42.3)"/><path class="cls-41" d="M294.35,435.75s-3.85,2.64-7,.73c-.45,3.75-.45,9.64-.45,9.64h20.71s2.23-5-1.72-5.55-5.1.32-6.37-1.08A33.91,33.91,0,0,0,294.35,435.75Z" transform="translate(-80.94 -42.3)"/><path class="cls-42" d="M299.54,439.55l-.05-.06a33.91,33.91,0,0,0-5.14-3.74,8.16,8.16,0,0,1-.89.5l4.23,4.58Z" transform="translate(-80.94 -42.3)"/><path class="cls-23" d="M286.92,442.93c0,1.85-.05,3.19-.05,3.19h20.71a7.46,7.46,0,0,0,.61-3.19Z" transform="translate(-80.94 -42.3)"/><path class="cls-41" d="M249.59,446.47h11.78v-4.3c0-1.44-1.86-7.07-1.86-7.12-1.05-.05-5.06,0-5.06,0a38.31,38.31,0,0,1-3.3,4.82C250.15,440.83,249.33,443.12,249.59,446.47Z" transform="translate(-80.94 -42.3)"/><path class="cls-42" d="M259.23,440.06l-.57-5c-1,0-2.47,0-3.38,0l-1.3,5Z" transform="translate(-80.94 -42.3)"/><path class="cls-23" d="M249.79,442.74a13.19,13.19,0,0,0-.2,3.73h11.78v-3.73Z" transform="translate(-80.94 -42.3)"/><path class="cls-3" d="M250.66,288.32S251,303,263.28,302.88c8-.11,10.89-9.17,10.89-9.17a4.31,4.31,0,0,0,3.45-4.21c.33-3.77-1.18-5-2.16-3.66a13.37,13.37,0,0,0-.86-5.93s-17.36-4.64-19.62-4.86S250.66,288.32,250.66,288.32Z" transform="translate(-80.94 -42.3)"/><path class="cls-27" d="M258.8,295.46h7.87S262.74,302.69,258.8,295.46Z" transform="translate(-80.94 -42.3)"/><path class="cls-43" d="M276,273c-4.85-6.68-18.15-7.59-22.55-4-4.81,3.13-7.09,8-8.4,21.66-2.41,25.15,12.43,26.51,18.26,25.86-3-.64-9.75-12.3-9.14-22.87a42.47,42.47,0,0,0-1-10.59c3.8-.65,10.4-3.12,10.69-5.87,3.26,4.75,10.2,5.68,10.2,5.68l.28,6.87a9.83,9.83,0,0,1,1.16-3.69,2.22,2.22,0,0,1,.92-.74c1.34-2.2,1.28-4.18,1.28-6.62A10.82,10.82,0,0,0,276,273Z" transform="translate(-80.94 -42.3)"/><path class="cls-7" d="M258.16,288.94c0,.91-.44,1.64-1,1.64s-1-.73-1-1.64.44-1.65,1-1.65S258.16,288,258.16,288.94Z" transform="translate(-80.94 -42.3)"/><path class="cls-7" d="M269.93,288.94c0,.91-.44,1.64-1,1.64s-1-.73-1-1.64.43-1.65,1-1.65S269.93,288,269.93,288.94Z" transform="translate(-80.94 -42.3)"/><path class="cls-36" d="M254.17,284.79s.64-2.51,2.88-2c1.78.57,1.75,2.05,1.11,2s-.81-1-1.8-1A2.23,2.23,0,0,0,254.17,284.79Z" transform="translate(-80.94 -42.3)"/><path class="cls-36" d="M271.49,284.79s-.65-2.51-2.89-2c-1.78.57-1.75,2.05-1.1,2s.81-1,1.79-1A2.25,2.25,0,0,1,271.49,284.79Z" transform="translate(-80.94 -42.3)"/><path class="cls-3" d="M298.58,328.31a9.35,9.35,0,0,0,1.45-2.42c.71-1.63,3.86-2.52,5.24-2.79s5.94,0,5.89.37,1.63,3.39-1,5.55c-1.63,1.34-7.79,2-9.29,2.93C299.05,333.07,298.58,328.31,298.58,328.31Z" transform="translate(-80.94 -42.3)"/><polygon class="cls-44" points="237.07 278.85 236.77 278.09 220.21 283.84 220.51 284.6 222.46 287.45 237.07 278.85"/><polygon class="cls-45" points="236.77 278.09 234.03 275.52 220.21 283.84 222.16 286.69 236.77 278.09"/><path class="cls-3" d="M311.54,325s-.88-1.4-1.72-1.21-.25.73-.25.73-1-.28-1.19.37a.52.52,0,0,0,.22.44s-.85-.08-1.15.21-.16.54.08.65c-.67,0-1,.6-.58.92a3,3,0,0,0,2.46,0C310.39,326.76,311.87,325.81,311.54,325Z" transform="translate(-80.94 -42.3)"/><path class="cls-3" d="M301,324.78a17,17,0,0,1,2.62-1.5c1.57-.73,4,.1,4.41.22.27.32-.62,1.16-1.78,1a6.36,6.36,0,0,0-3.11.43A3.71,3.71,0,0,1,301,324.78Z" transform="translate(-80.94 -42.3)"/><path class="cls-1" d="M414.35,112.83a13,13,0,0,0,.65-4.07c0-5.44-3.22-9.86-7.17-9.86a5.08,5.08,0,0,0-1,.1c-2.24-6.41-7-10.54-12.16-10.54a10.26,10.26,0,0,0-4.76,1.21c-3.64-8.27-10.23-13.39-17.25-13.39-6.29,0-12.09,3.92-15.94,10.77a12.4,12.4,0,0,0-6.64-2c-6.59,0-12.4,5.39-14.88,13.77l-.45,0c-5.37,0-9.73,6-9.73,13.39,0,.2,0,.4,0,.61Z" transform="translate(-80.94 -42.3)"/><path class="cls-1" d="M164.66,169.09a11.15,11.15,0,0,0,.54-3.43c0-4.6-2.71-8.33-6-8.33a3.7,3.7,0,0,0-.86.09c-1.89-5.42-5.89-8.9-10.26-8.9a8.71,8.71,0,0,0-4,1c-3.08-7-8.64-11.3-14.57-11.3-5.31,0-10.21,3.31-13.46,9.09a10.5,10.5,0,0,0-5.61-1.66c-5.56,0-10.47,4.55-12.56,11.63l-.38,0c-4.53,0-8.22,5.07-8.22,11.3,0,.18,0,.35,0,.52Z" transform="translate(-80.94 -42.3)"/><path class="cls-1" d="M387.08,189.25a10.88,10.88,0,0,0,.54-3.44c0-4.59-2.71-8.33-6.05-8.33a4.24,4.24,0,0,0-.85.09c-1.9-5.41-5.9-8.89-10.27-8.89a8.71,8.71,0,0,0-4,1c-3.07-7-8.63-11.3-14.56-11.3-5.32,0-10.21,3.31-13.47,9.09a10.46,10.46,0,0,0-5.6-1.66c-5.57,0-10.47,4.55-12.57,11.63l-.38,0c-4.53,0-8.21,5.07-8.21,11.3,0,.18,0,.34,0,.52Z" transform="translate(-80.94 -42.3)"/><path class="cls-1" d="M320.65,66.54A8,8,0,0,0,321,64.1c0-3.27-1.92-5.92-4.29-5.92a3.23,3.23,0,0,0-.61.06c-1.35-3.84-4.19-6.32-7.29-6.32a6.13,6.13,0,0,0-2.86.72c-2.19-5-6.14-8-10.35-8-3.78,0-7.26,2.35-9.57,6.46a7.44,7.44,0,0,0-4-1.18c-3.95,0-7.44,3.24-8.93,8.26h-.27c-3.21,0-5.83,3.6-5.83,8,0,.12,0,.24,0,.37Z" transform="translate(-80.94 -42.3)"/></svg>